<svg xmlns="http://www.w3.org/2000/svg" version="1.1" xmlns:xlink="http://www.w3.org/1999/xlink" xmlns:svgjs="http://svgjs.dev/svgjs" width="1000" height="187" viewBox="0 0 1000 187"><g transform="matrix(1,0,0,1,0.047279059837421755,0.13896034482762332)"><svg viewBox="0 0 310 58" data-background-color="#ffffff" preserveAspectRatio="xMidYMid meet" height="187" width="1000" xmlns="http://www.w3.org/2000/svg" xmlns:xlink="http://www.w3.org/1999/xlink"><defs></defs><g id="tight-bounds" transform="matrix(1,0,0,1,-0.014656508549592218,-0.043100000000009686)"><svg viewBox="0 0 310.0293130170992 58.0862" height="58.0862" width="310.0293130170992"><g><svg viewBox="0 0 310.0293130170992 58.0862" height="58.0862" width="310.0293130170992"><g><svg viewBox="0 0 310.0293130170992 58.0862" height="58.0862" width="310.0293130170992"><g><svg viewBox="0 0 310.0293130170992 58.0862" height="58.0862" width="310.0293130170992"><g><svg viewBox="0 0 310.0293130170992 58.0862" height="58.0862" width="310.0293130170992"><g><svg><g></g><g></g></svg></g><g><svg><g></g><g><svg></svg></g></svg></g><g id="text-0"><svg viewBox="0 0 310.0293130170992 58.0862" height="58.0862" width="310.0293130170992"><g><svg xmlns="http://www.w3.org/2000/svg" xmlns:xlink="http://www.w3.org/1999/xlink" version="1.1" x="0" y="0" viewBox="0 9.786 100.00034525285244 80.42699999999999" enable-background="new 0 0 100 100" xml:space="preserve" width="72.2225130170992" height="58.0862" class="icon-li-0" data-fill-palette-color="accent" id="li-0"><path d="M49.942 52.994c13.552-0.488 27.103-0.977 40.653-1.465-2.527-4.177-3.159-7.831-7.989-8.461-7.229-0.94-14.458-1.883-21.688-2.826-14.023-1.827-28.05-3.654-42.075-5.48C20.101 36.792 39.724 53.361 49.942 52.994z" fill="#ff735c" data-fill-palette-color="accent"></path><path d="M0 9.786c4.391 7.257 26.615 23.072 32.953 23.886 17.33 2.231 34.657 4.46 51.986 6.688-3.393-5.607-4.18-9.35-10.312-10.959-8.904-2.341-17.812-4.683-26.717-7.023C31.94 18.182 15.97 13.984 0 9.786z" fill="#ff735c" data-fill-palette-color="accent"></path><path d="M63.108 66.207c10.413-2.219 20.826-4.439 31.241-6.66-2.028-3.346-2.034-5.359-5.827-5.189-6.158 0.273-12.314 0.549-18.471 0.822-11.343 0.506-22.686 1.014-34.028 1.518C37.298 58.064 54.94 67.947 63.108 66.207z" fill="#ff735c" data-fill-palette-color="accent"></path><path d="M87.682 90.213c5.725-3.719 7.262-7.721 10.519-13.807 3.651-6.824 1.257-7.844-2.821-14.596-0.417-0.688-5.842 0.232-6.453 0.904-0.745 0.818-0.248 5.455-0.294 6.496C88.315 76.211 87.998 83.213 87.682 90.213z" fill="#ff735c" data-fill-palette-color="accent"></path><path d="M86.35 63.447c-3.795 0.809-8.604 0.191-9.572 4.229-1.373 5.736-2.746 11.475-4.12 17.211C81.904 82.678 86.028 71.582 86.35 63.447z" fill="#ff735c" data-fill-palette-color="accent"></path><path d="M74.666 66.121c-9.148 1.953-8.956 4.611-12.879 13.18C68.007 78.711 73.811 71.941 74.666 66.121z" fill="#ff735c" data-fill-palette-color="accent"></path></svg><g></g></g><g transform="matrix(1,0,0,1,85.9363130170992,3.552713678800501e-15)"><svg width="224.093" viewBox="1 -35 138.49 35.900000000000006" height="58.08619999999999" data-palette-color="#ffffff"><path d="M16.95 0.9L16.95 0.9Q13.15 0.9 10.23-0.45 7.3-1.8 5.68-4.73 4.05-7.65 4.05-12.45L4.05-12.45 4.05-29.7Q4.05-31.6 2.1-32.2L2.1-32.2 1-32.5 1-33 14.85-33 14.85-32.5 13.4-32.1Q11.55-31.65 11.55-29.6L11.55-29.6 11.55-11.15Q11.55-6.5 13.5-4.28 15.45-2.05 19.1-2.05L19.1-2.05Q22.9-2.05 25.13-4.4 27.35-6.75 27.35-11.05L27.35-11.05 27.35-29.4Q27.35-30.4 27.03-31.18 26.7-31.95 25.7-32.2L25.7-32.2 24.45-32.5 24.45-33 31.45-33 31.45-32.5 30.1-32.15Q29.15-31.95 28.85-31.2 28.55-30.45 28.55-29.45L28.55-29.45 28.55-11.15Q28.55-7.5 27.1-4.78 25.65-2.05 23.05-0.58 20.45 0.9 16.95 0.9ZM45.2 0L33.45 0 33.45-0.5 34.15-0.7Q35.9-1.2 35.9-3.15L35.9-3.15 35.9-18.8Q35.9-19.9 35.55-20.43 35.2-20.95 34.2-21.15L34.2-21.15 33.45-21.35 33.45-21.85 42-24.75 42.5-24.25 42.9-21.25Q44.65-22.8 46.85-23.8 49.05-24.8 51.2-24.8L51.2-24.8Q54.5-24.8 56.27-23 58.05-21.2 58.05-17.5L58.05-17.5 58.05-3.1Q58.05-1.15 59.95-0.65L59.95-0.65 60.4-0.5 60.4 0 48.6 0 48.6-0.5 49.25-0.7Q51-1.25 51-3.15L51-3.15 51-19.1Q51-22.3 47.8-22.3L47.8-22.3Q45.6-22.3 43-20.1L43-20.1 43-3.1Q43-1.15 44.75-0.65L44.75-0.65 45.2-0.5 45.2 0ZM68.35-27.4L68.35-27.4Q66.65-27.4 65.47-28.48 64.3-29.55 64.3-31.2L64.3-31.2Q64.3-32.9 65.47-33.95 66.65-35 68.35-35L68.35-35Q70.05-35 71.2-33.95 72.35-32.9 72.35-31.2L72.35-31.2Q72.35-29.55 71.2-28.48 70.05-27.4 68.35-27.4ZM74.15 0L62.45 0 62.45-0.5 63.15-0.7Q64.15-1 64.52-1.6 64.9-2.2 64.9-3.2L64.9-3.2 64.9-18.85Q64.9-19.9 64.52-20.43 64.15-20.95 63.15-21.15L63.15-21.15 62.45-21.3 62.45-21.8 71.6-24.75 72.1-24.25 71.95-17.15 71.95-3.15Q71.95-2.15 72.32-1.55 72.7-0.95 73.65-0.65L73.65-0.65 74.15-0.5 74.15 0ZM82.94 0L76.34 0 76.34-0.5 77.34-0.85Q79.04-1.4 79.04-3.7L79.04-3.7 79.04-29.3Q79.04-30.3 78.82-30.9 78.59-31.5 77.64-31.9L77.64-31.9 76.34-32.5 76.34-33 85.99-33 95.24-8.8 103.94-33 113.79-33 113.79-32.5 112.99-32.2Q112.04-31.85 111.69-31.23 111.34-30.6 111.34-29.6L111.34-29.6 111.34-3.45Q111.34-2.45 111.59-1.9 111.84-1.35 112.79-0.95L112.79-0.95 113.79-0.5 113.79 0 101.34 0 101.34-0.5 102.39-0.95Q103.34-1.35 103.59-1.9 103.84-2.45 103.84-3.45L103.84-3.45 103.84-14.7 103.94-29 93.49 0 90.99 0 80.09-28.65 80.24-16.2 80.24-3.6Q80.24-2.5 80.57-1.83 80.89-1.15 81.84-0.85L81.84-0.85 82.94-0.5 82.94 0ZM126.74 0.9L126.74 0.9Q123.99 0.9 121.14 0.23 118.29-0.45 116.39-1.55L116.39-1.55 116.64-8.35 117.14-8.35 118.69-5.1Q119.39-3.7 120.19-2.63 120.99-1.55 122.39-0.95L122.39-0.95Q123.39-0.45 124.32-0.28 125.24-0.1 126.39-0.1L126.39-0.1Q129.44-0.1 131.22-1.75 132.99-3.4 132.99-6L132.99-6Q132.99-8.45 131.79-9.83 130.59-11.2 127.94-12.5L127.94-12.5 125.89-13.4Q121.59-15.3 119.17-17.78 116.74-20.25 116.74-24.35L116.74-24.35Q116.74-27.3 118.27-29.45 119.79-31.6 122.52-32.75 125.24-33.9 128.89-33.9L128.89-33.9Q131.54-33.9 133.92-33.2 136.29-32.5 138.04-31.3L138.04-31.3 137.74-25.3 137.24-25.3 135.19-29.05Q134.34-30.8 133.49-31.53 132.64-32.25 131.54-32.55L131.54-32.55Q130.89-32.75 130.34-32.83 129.79-32.9 128.94-32.9L128.94-32.9Q126.39-32.9 124.64-31.43 122.89-29.95 122.89-27.45L122.89-27.45Q122.89-24.9 124.24-23.38 125.59-21.85 128.19-20.65L128.19-20.65 130.49-19.65Q135.29-17.55 137.39-15.18 139.49-12.8 139.49-9.05L139.49-9.05Q139.49-4.65 136.17-1.88 132.84 0.9 126.74 0.9Z" opacity="1" transform="matrix(1,0,0,1,0,0)" fill="#ffffff" class="undefined-text-0" data-fill-palette-color="primary"></path></svg></g></svg></g></svg></g></svg></g></svg></g></svg></g></svg><rect width="310.0293130170992" height="58.0862" fill="none" stroke="none" visibility="hidden"></rect></g></svg></g></svg>